<mxfile host="Electron" modified="2024-05-19T18:37:55.242Z" agent="Mozilla/5.0 (Windows NT 10.0; Win64; x64) AppleWebKit/537.36 (KHTML, like Gecko) draw.io/23.1.5 Chrome/120.0.6099.109 Electron/28.1.0 Safari/537.36" etag="Zaa3PeNWiGhAgiWWJNuh" version="23.1.5" type="device">
  <diagram name="Strona-1" id="qhjlecZrfErG3EmEXIc5">
    <mxGraphModel dx="775" dy="452" grid="1" gridSize="10" guides="1" tooltips="1" connect="1" arrows="1" fold="1" page="1" pageScale="1" pageWidth="700" pageHeight="220" math="0" shadow="0">
      <root>
        <mxCell id="0" />
        <mxCell id="1" parent="0" />
        <mxCell id="C7s3aHvMIZBT5sqn7s_Q-35" value="&lt;font color=&quot;#000000&quot;&gt;&lt;br&gt;&lt;i style=&quot;border-color: rgb(0, 0, 0); font-family: Helvetica; font-size: 11px; font-variant-ligatures: normal; font-variant-caps: normal; font-weight: 400; letter-spacing: normal; orphans: 2; text-align: center; text-indent: 0px; text-transform: none; widows: 2; word-spacing: 0px; -webkit-text-stroke-width: 0px; text-decoration-thickness: initial; text-decoration-style: initial; text-decoration-color: initial;&quot;&gt;b2&lt;/i&gt;&lt;br style=&quot;border-color: rgb(0, 0, 0); font-family: Helvetica; font-size: 11px; font-style: normal; font-variant-ligatures: normal; font-variant-caps: normal; font-weight: 400; letter-spacing: normal; orphans: 2; text-align: center; text-indent: 0px; text-transform: none; widows: 2; word-spacing: 0px; -webkit-text-stroke-width: 0px; text-decoration-thickness: initial; text-decoration-style: initial; text-decoration-color: initial;&quot;&gt;&lt;span style=&quot;font-family: Helvetica; font-size: 11px; font-style: normal; font-variant-ligatures: normal; font-variant-caps: normal; font-weight: 400; letter-spacing: normal; orphans: 2; text-align: center; text-indent: 0px; text-transform: none; widows: 2; word-spacing: 0px; -webkit-text-stroke-width: 0px; text-decoration-thickness: initial; text-decoration-style: initial; text-decoration-color: initial; float: none; display: inline !important;&quot;&gt;c2_ram_rdy = 1&lt;/span&gt;&lt;br style=&quot;border-color: rgb(0, 0, 0); font-family: Helvetica; font-size: 11px; font-style: normal; font-variant-ligatures: normal; font-variant-caps: normal; font-weight: 400; letter-spacing: normal; orphans: 2; text-align: center; text-indent: 0px; text-transform: none; widows: 2; word-spacing: 0px; -webkit-text-stroke-width: 0px; text-decoration-thickness: initial; text-decoration-style: initial; text-decoration-color: initial;&quot;&gt;&lt;span style=&quot;font-family: Helvetica; font-size: 11px; font-style: normal; font-variant-ligatures: normal; font-variant-caps: normal; font-weight: 400; letter-spacing: normal; orphans: 2; text-align: center; text-indent: 0px; text-transform: none; widows: 2; word-spacing: 0px; -webkit-text-stroke-width: 0px; text-decoration-thickness: initial; text-decoration-style: initial; text-decoration-color: initial; float: none; display: inline !important;&quot;&gt;c2_ram_data = data[31:0]&lt;/span&gt;&lt;/font&gt;&lt;div&gt;&lt;br&gt;&lt;/div&gt;" style="endArrow=classic;html=1;rounded=0;exitX=0.37;exitY=0.953;exitDx=0;exitDy=0;exitPerimeter=0;entryX=0.37;entryY=-0.191;entryDx=0;entryDy=0;entryPerimeter=0;" edge="1" parent="1" source="C7s3aHvMIZBT5sqn7s_Q-16" target="C7s3aHvMIZBT5sqn7s_Q-17">
          <mxGeometry x="0.121" y="-65" width="50" height="50" relative="1" as="geometry">
            <mxPoint x="340" y="200" as="sourcePoint" />
            <mxPoint x="390" y="150" as="targetPoint" />
            <mxPoint as="offset" />
          </mxGeometry>
        </mxCell>
        <mxCell id="C7s3aHvMIZBT5sqn7s_Q-22" style="edgeStyle=orthogonalEdgeStyle;rounded=0;orthogonalLoop=1;jettySize=auto;html=1;exitX=0.75;exitY=1;exitDx=0;exitDy=0;entryX=0.75;entryY=0;entryDx=0;entryDy=0;" edge="1" parent="1" source="C7s3aHvMIZBT5sqn7s_Q-16" target="C7s3aHvMIZBT5sqn7s_Q-17">
          <mxGeometry relative="1" as="geometry" />
        </mxCell>
        <mxCell id="C7s3aHvMIZBT5sqn7s_Q-31" value="&lt;i&gt;b4&lt;/i&gt;&lt;br&gt;c4_ram_rdy = 1&lt;br&gt;c4_ram_data = data[63:32]" style="edgeLabel;html=1;align=center;verticalAlign=middle;resizable=0;points=[];" vertex="1" connectable="0" parent="C7s3aHvMIZBT5sqn7s_Q-22">
          <mxGeometry x="-0.4528" y="2" relative="1" as="geometry">
            <mxPoint x="73" y="12" as="offset" />
          </mxGeometry>
        </mxCell>
        <mxCell id="C7s3aHvMIZBT5sqn7s_Q-16" value="LOAD1" style="rounded=0;whiteSpace=wrap;html=1;" vertex="1" parent="1">
          <mxGeometry x="20" y="34.89" width="420" height="20" as="geometry" />
        </mxCell>
        <mxCell id="C7s3aHvMIZBT5sqn7s_Q-23" style="edgeStyle=orthogonalEdgeStyle;rounded=0;orthogonalLoop=1;jettySize=auto;html=1;exitX=0.75;exitY=1;exitDx=0;exitDy=0;entryX=0.75;entryY=0;entryDx=0;entryDy=0;" edge="1" parent="1" source="C7s3aHvMIZBT5sqn7s_Q-17" target="C7s3aHvMIZBT5sqn7s_Q-16">
          <mxGeometry relative="1" as="geometry">
            <Array as="points">
              <mxPoint x="335" y="200" />
              <mxPoint x="680" y="200" />
              <mxPoint x="680" y="20" />
              <mxPoint x="335" y="20" />
            </Array>
          </mxGeometry>
        </mxCell>
        <mxCell id="C7s3aHvMIZBT5sqn7s_Q-37" value="&lt;div&gt;&lt;i&gt;b3&lt;/i&gt;&lt;br&gt;c4_ram_rdy = 1&lt;br&gt;c4_ram_data = data[63:32]&lt;br&gt;&lt;/div&gt;" style="edgeLabel;html=1;align=center;verticalAlign=middle;resizable=0;points=[];" vertex="1" connectable="0" parent="C7s3aHvMIZBT5sqn7s_Q-23">
          <mxGeometry x="-0.9592" y="2" relative="1" as="geometry">
            <mxPoint x="83" y="1" as="offset" />
          </mxGeometry>
        </mxCell>
        <mxCell id="C7s3aHvMIZBT5sqn7s_Q-24" style="edgeStyle=orthogonalEdgeStyle;rounded=0;orthogonalLoop=1;jettySize=auto;html=1;exitX=0.25;exitY=1;exitDx=0;exitDy=0;" edge="1" parent="1" source="C7s3aHvMIZBT5sqn7s_Q-17">
          <mxGeometry relative="1" as="geometry">
            <mxPoint x="180" y="30" as="targetPoint" />
            <Array as="points">
              <mxPoint x="180" y="160" />
              <mxPoint x="180" y="210" />
              <mxPoint x="690" y="210" />
              <mxPoint x="690" y="10" />
              <mxPoint x="180" y="10" />
            </Array>
          </mxGeometry>
        </mxCell>
        <mxCell id="C7s3aHvMIZBT5sqn7s_Q-36" value="&lt;i&gt;b1&lt;/i&gt;&lt;div&gt;c1_ram_rdy = 1&lt;br&gt;c1_ram_data = data[31:0]&lt;br&gt;&lt;/div&gt;" style="edgeLabel;html=1;align=center;verticalAlign=middle;resizable=0;points=[];" vertex="1" connectable="0" parent="C7s3aHvMIZBT5sqn7s_Q-24">
          <mxGeometry x="-0.8965" y="-3" relative="1" as="geometry">
            <mxPoint x="-67" y="15" as="offset" />
          </mxGeometry>
        </mxCell>
        <mxCell id="C7s3aHvMIZBT5sqn7s_Q-17" value="LOAD2" style="rounded=0;whiteSpace=wrap;html=1;" vertex="1" parent="1">
          <mxGeometry x="20" y="139.93" width="420" height="20" as="geometry" />
        </mxCell>
        <mxCell id="C7s3aHvMIZBT5sqn7s_Q-26" value="&lt;i&gt;&lt;b&gt;Avalon Stream&lt;/b&gt;&lt;/i&gt; addr&lt;br&gt;&amp;lt;- {c1_ram_addr,c3_ram_addr}" style="rounded=0;whiteSpace=wrap;html=1;fillColor=#1ba1e2;fontColor=#ffffff;strokeColor=#006EAF;" vertex="1" parent="1">
          <mxGeometry x="440" y="34.89" width="180" height="35.11" as="geometry" />
        </mxCell>
        <mxCell id="C7s3aHvMIZBT5sqn7s_Q-27" value="&lt;i&gt;&lt;b&gt;Avalon Stream&lt;/b&gt;&lt;/i&gt; addr&lt;br&gt;&amp;lt;- {c2_ram_addr,c4_ram_addr}" style="rounded=0;whiteSpace=wrap;html=1;fillColor=#1ba1e2;fontColor=#ffffff;strokeColor=#006EAF;" vertex="1" parent="1">
          <mxGeometry x="440" y="120" width="180" height="40.07" as="geometry" />
        </mxCell>
        <mxCell id="C7s3aHvMIZBT5sqn7s_Q-29" value="&lt;i&gt;&lt;b&gt;Avalon Stream&lt;/b&gt;&lt;/i&gt;&amp;nbsp;data&lt;br&gt;-&amp;gt; data[63:0]" style="rounded=0;whiteSpace=wrap;html=1;fillColor=#1ba1e2;fontColor=#ffffff;strokeColor=#006EAF;" vertex="1" parent="1">
          <mxGeometry x="10" y="130" width="150" height="30.07" as="geometry" />
        </mxCell>
        <mxCell id="C7s3aHvMIZBT5sqn7s_Q-28" value="&lt;i&gt;&lt;b&gt;Avalon Stream&lt;/b&gt;&lt;/i&gt;&amp;nbsp;data&lt;br&gt;-&amp;gt; data[63:0]" style="rounded=0;whiteSpace=wrap;html=1;fillColor=#1ba1e2;fontColor=#ffffff;strokeColor=#006EAF;" vertex="1" parent="1">
          <mxGeometry x="10" y="34.89" width="150" height="35.11" as="geometry" />
        </mxCell>
      </root>
    </mxGraphModel>
  </diagram>
</mxfile>
